# xmcd CD database file
#
# Track frame offsets:
#	150
#	14497
#	29151
#	42279
#	57029
#	70319
#	85156
#	100244
#	117260
#	132150
#	145589
#
# Disc length: 2077 seconds
#
# Revision: 0
# Processed by: cddbd v1.5.2PL0 Copyright (c) Steve Scherf et al.
# Submitted via: CDex 1.51
#
DISCID=95081b0b
DTITLE=Pete "Big Dog" Fetters - Milkbone Underwear
DYEAR=1998
DGENRE=Blues
TTITLE0=Milkbone Underwear
TTITLE1=I'm Gettin' Too Old For This Shit
TTITLE2=Like You Do
TTITLE3=Hoochie Coochie Man
TTITLE4=Two Banana Blues
TTITLE5=Long Way From L.A.
TTITLE6=Eatin' Chicken Wings
TTITLE7=Me And Bobby McGee
TTITLE8=It's Been Too Long
TTITLE9=Hound Dog
TTITLE10=Old Church Bell
EXTD=YEAR: 1998
EXTT0=
EXTT1=
EXTT2=
EXTT3=
EXTT4=
EXTT5=
EXTT6=
EXTT7=
EXTT8=
EXTT9=
EXTT10=
PLAYORDER=
